# xmcd
#
# Track frame offsets:
#	150
#	25488
#	42149
#	60905
#	80113
#	102657
#	131182
#	148649
#	166481
#	185216
#	208743
#	236676
#
# Disc length: 3373 seconds
#
# Revision: 0
# Processed by: cddbd v1.5.2PL0 Copyright (c) Steve Scherf et al.
# Submitted via: EZCDAudioConverter 2.2.2.1
#
DISCID=b60d2b0c
DTITLE=Memphis Train - Beatin' Around the Blues
DYEAR=2017
DGENRE=Blues
TTITLE0=Roadrunner
TTITLE1=You Tried Babe
TTITLE2=How Many More Times
TTITLE3=Need A needle
TTITLE4=Trying To Say Sorry
TTITLE5=Wasted Time
TTITLE6=Jail Blues Band
TTITLE7=Bring Me The Cops
TTITLE8=On My Way
TTITLE9=Times Are Gettin' Blue
TTITLE10=Have You Ever
TTITLE11=Matter Of Time
EXTD=
EXTT0=
EXTT1=
EXTT2=
EXTT3=
EXTT4=
EXTT5=
EXTT6=
EXTT7=
EXTT8=
EXTT9=
EXTT10=
EXTT11=
PLAYORDER=
